<?xml version="1.0" encoding="UTF-8"?>
<svg xmlns="http://www.w3.org/2000/svg" xmlns:xlink="http://www.w3.org/1999/xlink" width="746px" height="721px" viewBox="0 0 746 721" version="1.1">
<g id="surface1">
<path style=" stroke:none;fill-rule:nonzero;fill:rgb(94.901961%,94.901961%,94.901961%);fill-opacity:1;" d="M 571.15625 713.035156 C 561.605469 699.988281 555.804688 679.371094 557.324219 659.304688 C 558.847656 639.234375 568.269531 620.785156 580.492188 616.523438 C 592.714844 612.261719 606.648438 624.058594 610.359375 643.367188 C 612.402344 606.140625 614.757812 567.359375 626.996094 535.660156 C 638.078125 506.957031 657.273438 486.417969 678.074219 482.746094 C 698.878906 479.070312 720.78125 492.949219 733.753906 519.496094 C 746.726562 546.046875 749.902344 584.644531 740.816406 615.125 C 734.125 637.578125 721.792969 654.289062 708.871094 667.886719 C 667.117188 711.445312 617.042969 729.160156 567.855469 717.769531 Z M 571.15625 713.035156 "/>
<path style=" stroke:none;fill-rule:nonzero;fill:rgb(100%,100%,100%);fill-opacity:1;" d="M 713.183594 493.71875 C 696.019531 516.324219 680.273438 541.609375 666.171875 569.203125 C 644.101562 612.242188 626.246094 660.496094 613.21875 712.285156 C 612.265625 716.0625 616.0625 717.707031 617.003906 713.972656 C 638.316406 629.804688 672.335938 555.621094 715.957031 498.203125 C 717.914062 495.625 715.125 491.160156 713.183594 493.71875 Z M 713.183594 493.71875 "/>
<path style=" stroke:none;fill-rule:nonzero;fill:rgb(94.901961%,94.901961%,94.901961%);fill-opacity:1;" d="M 240.148438 709.492188 C 253.265625 691.566406 261.234375 663.253906 259.144531 635.6875 C 257.054688 608.125 244.113281 582.785156 227.324219 576.929688 C 210.539062 571.078125 191.398438 587.28125 186.300781 613.796875 C 183.496094 562.671875 180.261719 509.402344 163.449219 465.863281 C 148.230469 426.441406 121.867188 398.230469 93.292969 393.183594 C 64.722656 388.136719 34.640625 407.199219 16.820312 443.664062 C -1 480.128906 -5.363281 533.144531 7.117188 575.011719 C 16.3125 605.851562 33.25 628.804688 50.996094 647.476562 C 107.613281 707.050781 177.851562 731.894531 244.679688 715.992188 "/>
<path style=" stroke:none;fill-rule:nonzero;fill:rgb(100%,100%,100%);fill-opacity:1;" d="M 45.074219 408.253906 C 68.648438 439.304688 90.277344 474.035156 109.644531 511.9375 C 129.015625 549.800781 146.070312 590.613281 160.566406 633.800781 C 168.671875 658.027344 175.949219 682.949219 182.371094 708.460938 C 183.683594 713.648438 178.472656 715.90625 177.175781 710.777344 C 165.800781 665.800781 151.722656 622.738281 135.152344 582.207031 C 118.660156 541.820312 99.785156 504.113281 78.792969 469.621094 C 66.917969 450.121094 54.390625 431.691406 41.265625 414.417969 C 38.574219 410.875 42.40625 404.742188 45.074219 408.253906 Z M 45.074219 408.253906 "/>
<path style=" stroke:none;fill-rule:nonzero;fill:rgb(94.901961%,94.901961%,94.901961%);fill-opacity:1;" d="M 535.492188 719.613281 L 222.515625 719.613281 L 222.515625 200.355469 C 222.515625 89.878906 278.097656 0 346.417969 0 L 411.585938 0 C 479.90625 0 535.492188 89.878906 535.492188 200.355469 Z M 535.492188 719.613281 "/>
<path style=" stroke:none;fill-rule:nonzero;fill:rgb(80%,80%,80%);fill-opacity:1;" d="M 470.324219 719.613281 L 222.515625 719.613281 L 222.515625 200.355469 C 222.445312 158.023438 230.734375 116.761719 246.175781 82.578125 C 246.746094 81.320312 247.3125 80.082031 247.898438 78.859375 C 255.367188 63.019531 264.253906 49.070312 274.269531 37.46875 C 274.835938 36.804688 275.402344 36.148438 275.980469 35.496094 C 284.359375 26.121094 293.421875 18.453125 302.964844 12.675781 C 303.53125 12.328125 304.109375 11.980469 304.6875 11.644531 C 313.316406 6.664062 322.265625 3.253906 331.359375 1.472656 C 331.925781 1.351562 332.503906 1.253906 333.082031 1.15625 C 341.949219 -0.378906 350.890625 -0.378906 359.753906 1.15625 C 360.332031 1.253906 360.910156 1.351562 361.480469 1.476562 C 370.578125 3.253906 379.523438 6.667969 388.148438 11.644531 C 388.726562 11.980469 389.304688 12.328125 389.871094 12.675781 C 399.296875 18.382812 408.253906 25.933594 416.546875 35.160156 C 417.121094 35.800781 417.699219 36.453125 418.265625 37.109375 C 423.878906 43.585938 429.152344 50.804688 434.027344 58.6875 C 437.941406 65.011719 441.585938 71.75 444.941406 78.863281 C 445.523438 80.082031 446.089844 81.320312 446.660156 82.574219 C 462.101562 116.757812 470.390625 158.023438 470.324219 200.355469 Z M 470.324219 719.613281 "/>
<path style=" stroke:none;fill-rule:nonzero;fill:rgb(23.529412%,59.215686%,100%);fill-opacity:1;" d="M 463.890625 465.183594 C 463.890625 477.4375 457.75 487.367188 450.171875 487.367188 C 442.59375 487.367188 436.453125 477.4375 436.453125 465.183594 C 436.453125 452.929688 442.59375 443 450.171875 443 C 457.75 443 463.890625 452.929688 463.890625 465.183594 Z M 463.890625 465.183594 "/>
<path style=" stroke:none;fill-rule:nonzero;fill:rgb(100%,72.156863%,72.156863%);fill-opacity:1;" d="M 509.851562 704.0625 L 499.339844 704.0625 L 494.335938 638.492188 L 509.851562 638.496094 Z M 509.851562 704.0625 "/>
<path style=" stroke:none;fill-rule:nonzero;fill:rgb(18.431373%,18.039216%,25.490196%);fill-opacity:1;" d="M 491.828125 699.203125 L 512.105469 699.203125 L 512.105469 719.84375 L 479.066406 719.84375 C 479.066406 708.445312 484.78125 699.203125 491.828125 699.203125 Z M 491.828125 699.203125 "/>
<path style=" stroke:none;fill-rule:nonzero;fill:rgb(100%,72.156863%,72.156863%);fill-opacity:1;" d="M 562.15625 704.0625 L 551.644531 704.0625 L 546.644531 638.492188 L 562.160156 638.496094 Z M 562.15625 704.0625 "/>
<path style=" stroke:none;fill-rule:nonzero;fill:rgb(18.431373%,18.039216%,25.490196%);fill-opacity:1;" d="M 544.136719 699.203125 L 564.410156 699.203125 L 564.410156 719.84375 L 531.371094 719.84375 C 531.371094 708.445312 537.085938 699.203125 544.136719 699.203125 Z M 544.136719 699.203125 "/>
<path style=" stroke:none;fill-rule:nonzero;fill:rgb(100%,72.156863%,72.156863%);fill-opacity:1;" d="M 457.117188 469.578125 C 455.585938 465.929688 455.132812 461.375 455.878906 457.136719 C 456.625 452.894531 458.492188 449.40625 460.984375 447.613281 L 496.71875 288.34375 L 514.304688 303.863281 L 473.5 456.0625 C 475.125 463.183594 473.203125 471.140625 469.019531 474.589844 C 464.839844 478.035156 459.726562 475.882812 457.117188 469.578125 Z M 457.117188 469.578125 "/>
<path style=" stroke:none;fill-rule:nonzero;fill:rgb(100%,72.156863%,72.156863%);fill-opacity:1;" d="M 556.789062 499.503906 C 554.421875 497.3125 552.78125 493.539062 552.300781 489.199219 C 551.820312 484.859375 552.554688 480.398438 554.304688 477.019531 L 543.234375 308.542969 L 563.246094 310.019531 L 567.847656 475.742188 C 571.238281 480.988281 571.667969 489.503906 568.84375 495.566406 C 566.023438 501.628906 560.84375 503.324219 556.789062 499.503906 Z M 556.789062 499.503906 "/>
<path style=" stroke:none;fill-rule:nonzero;fill:rgb(100%,72.156863%,72.156863%);fill-opacity:1;" d="M 545.921875 224.789062 C 545.921875 243.597656 536.496094 258.84375 524.863281 258.84375 C 513.230469 258.84375 503.804688 243.597656 503.804688 224.789062 C 503.804688 205.980469 513.230469 190.734375 524.863281 190.734375 C 536.496094 190.734375 545.921875 205.980469 545.921875 224.789062 Z M 545.921875 224.789062 "/>
<path style=" stroke:none;fill-rule:nonzero;fill:rgb(23.529412%,59.215686%,100%);fill-opacity:1;" d="M 556.652344 461.1875 L 493.160156 461.1875 L 493.234375 460.390625 C 493.351562 459.195312 504.550781 340.539062 496.289062 301.71875 C 494.574219 293.820312 496.816406 285.097656 501.496094 281.5 C 513.304688 272.507812 535.972656 261.433594 555.105469 288.304688 C 560.8125 296.453125 563.816406 308.472656 563.214844 320.746094 Z M 556.652344 461.1875 "/>
<path style=" stroke:none;fill-rule:nonzero;fill:rgb(23.529412%,59.215686%,100%);fill-opacity:1;" d="M 505.355469 358.074219 L 476.769531 348.695312 L 490.167969 297.355469 C 491.835938 287 498.375 280.785156 504.78125 283.457031 C 511.191406 286.132812 515.050781 296.6875 513.410156 307.054688 Z M 505.355469 358.074219 "/>
<path style=" stroke:none;fill-rule:nonzero;fill:rgb(23.529412%,59.215686%,100%);fill-opacity:1;" d="M 541.964844 375.484375 L 540.246094 311.785156 C 538.945312 299.8125 543.183594 288.492188 549.703125 286.640625 C 556.222656 284.796875 562.589844 293.101562 563.902344 305.164062 L 570.359375 364.6875 Z M 541.964844 375.484375 "/>
<path style=" stroke:none;fill-rule:nonzero;fill:rgb(18.431373%,18.039216%,25.490196%);fill-opacity:1;" d="M 554.539062 453.5625 C 564.757812 516.480469 565.871094 596.472656 563.113281 683.726562 L 549.394531 680.953125 L 524.527344 514.570312 L 510.808594 683.726562 L 495.375 682.339844 C 490.765625 590.789062 486.273438 512.191406 493.660156 460.496094 Z M 554.539062 453.5625 "/>
<path style=" stroke:none;fill-rule:nonzero;fill:rgb(18.431373%,18.039216%,25.490196%);fill-opacity:1;" d="M 538.738281 251.109375 C 534.8125 257.875 527.515625 254.242188 527.003906 244.996094 C 526.960938 244.277344 526.964844 243.558594 527.011719 242.839844 C 527.277344 238.746094 528.738281 235.027344 528.386719 230.703125 C 528.308594 229.625 528.0625 228.601562 527.667969 227.722656 C 524.535156 220.945312 517.1875 230.753906 514.234375 224.617188 C 512.421875 220.855469 514.550781 214.929688 513.160156 210.722656 C 511.324219 205.171875 505.890625 207.910156 502.480469 204.871094 C 498.6875 201.488281 498.914062 192.082031 501.414062 186.359375 C 504.457031 179.378906 509.792969 175.652344 515.066406 175.117188 C 520.335938 174.582031 525.574219 176.886719 530.492188 179.984375 C 536.085938 183.511719 541.628906 188.378906 545.070312 196.332031 C 549.257812 206 549.660156 218.996094 547.566406 230.304688 C 546.292969 237.179688 541.949219 245.582031 538.738281 251.109375 Z M 538.738281 251.109375 "/>
<path style=" stroke:none;fill-rule:nonzero;fill:rgb(24.705882%,23.921569%,33.72549%);fill-opacity:1;" d="M 720.261719 720.503906 L 87.195312 720.503906 C 86.632812 720.503906 86.175781 719.765625 86.175781 718.855469 C 86.175781 717.945312 86.632812 717.207031 87.195312 717.203125 L 720.261719 717.203125 C 720.824219 717.207031 721.277344 717.945312 721.277344 718.855469 C 721.277344 719.765625 720.824219 720.503906 720.261719 720.503906 Z M 720.261719 720.503906 "/>
<path style=" stroke:none;fill-rule:nonzero;fill:rgb(100%,100%,100%);fill-opacity:1;" d="M 402.152344 569.175781 L 290.683594 569.175781 C 287.625 569.199219 285.132812 565.222656 285.109375 560.277344 L 285.109375 157.949219 C 285.132812 153.003906 287.625 149.027344 290.683594 149.054688 L 402.152344 149.054688 C 405.210938 149.027344 407.703125 153.003906 407.726562 157.949219 L 407.726562 560.277344 C 407.703125 565.222656 405.210938 569.199219 402.152344 569.175781 Z M 402.152344 569.175781 "/>
<path style=" stroke:none;fill-rule:nonzero;fill:rgb(80%,80%,80%);fill-opacity:1;" d="M 285.109375 279.234375 L 407.726562 279.234375 L 407.726562 282.007812 L 285.109375 282.007812 Z M 285.109375 279.234375 "/>
<path style=" stroke:none;fill-rule:nonzero;fill:rgb(80%,80%,80%);fill-opacity:1;" d="M 285.539062 437.453125 L 408.15625 437.453125 L 408.15625 440.226562 L 285.539062 440.226562 Z M 285.539062 437.453125 "/>
<path style=" stroke:none;fill-rule:nonzero;fill:rgb(80%,80%,80%);fill-opacity:1;" d="M 323.695312 149.054688 L 325.410156 149.054688 L 325.410156 570.5625 L 323.695312 570.5625 Z M 323.695312 149.054688 "/>
<path style=" stroke:none;fill-rule:nonzero;fill:rgb(80%,80%,80%);fill-opacity:1;" d="M 366.570312 149.054688 L 368.285156 149.054688 L 368.285156 570.5625 L 366.570312 570.5625 Z M 366.570312 149.054688 "/>
</g>
</svg>
