<?xml version="1.0" encoding="UTF-8"?>
<svg xmlns="http://www.w3.org/2000/svg" xmlns:xlink="http://www.w3.org/1999/xlink" width="1835px" height="950px" viewBox="0 0 1835 950" version="1.1">
<g id="surface1">
<path style=" stroke:none;fill-rule:nonzero;fill:rgb(94.509804%,94.509804%,94.509804%);fill-opacity:1;" d="M 663.117188 181.25 C 663.199219 240.554688 610.140625 296.117188 521.089844 329.984375 C 508.730469 334.710938 495.789062 338.96875 482.359375 342.71875 C 477.902344 343.96875 473.414062 345.15625 468.839844 346.28125 C 464.722656 347.3125 460.578125 348.28125 456.378906 349.203125 C 404.261719 360.738281 347.652344 364.867188 291.828125 361.203125 C 282.167969 360.578125 272.628906 359.71875 263.214844 358.625 C 262.816406 358.578125 262.386719 358.53125 261.988281 358.484375 C 242.273438 356.207031 222.992188 352.925781 204.394531 348.6875 C 50.738281 313.820312 -31.867188 222.105469 11.269531 134.269531 C 54.402344 46.433594 209.925781 -10.332031 374.863281 1.554688 C 539.804688 13.441406 663.097656 90.304688 663.117188 181.25 Z M 663.117188 181.25 "/>
<path style=" stroke:none;fill-rule:nonzero;fill:rgb(18.431373%,18.039216%,25.490196%);fill-opacity:1;" d="M 392.609375 147.421875 C 392.324219 147.234375 392.007812 147.0625 391.695312 146.890625 C 354.828125 126.539062 294.863281 126.207031 257.242188 146.140625 C 257.042969 146.234375 256.871094 146.328125 256.699219 146.421875 C 256.472656 146.53125 256.273438 146.640625 256.070312 146.75 C 238.089844 156.554688 227.992188 169.867188 228.003906 183.75 L 228.003906 216.5625 C 228.015625 220.441406 233.765625 223.589844 240.867188 223.59375 L 406.644531 223.59375 C 413.742188 223.589844 419.496094 220.441406 419.507812 216.5625 L 419.507812 183.75 C 419.53125 170.1875 409.882812 157.15625 392.609375 147.421875 Z M 392.609375 147.421875 "/>
<path style=" stroke:none;fill-rule:nonzero;fill:rgb(100%,71.764706%,71.764706%);fill-opacity:1;" d="M 397.796875 184.890625 C 397.796875 206.085938 366.367188 223.269531 327.597656 223.269531 C 288.824219 223.269531 257.394531 206.085938 257.394531 184.890625 C 257.394531 163.695312 288.824219 146.515625 327.597656 146.515625 C 366.367188 146.515625 397.796875 163.695312 397.796875 184.890625 Z M 397.796875 184.890625 "/>
<path style=" stroke:none;fill-rule:nonzero;fill:rgb(18.431373%,18.039216%,25.490196%);fill-opacity:1;" d="M 401.386719 181.625 L 393.097656 149.96875 C 392.839844 148.996094 391.933594 148.113281 390.550781 147.484375 C 390.085938 147.28125 389.578125 147.105469 389.035156 146.96875 C 346.589844 136.109375 303.546875 136.109375 261.101562 146.9375 C 260.535156 147.082031 260.007812 147.265625 259.527344 147.484375 C 259.359375 147.5625 259.1875 147.65625 259.015625 147.75 C 257.882812 148.390625 257.175781 149.222656 257.015625 150.109375 L 251.46875 181.8125 C 251.28125 182.910156 251.945312 183.996094 253.300781 184.8125 C 254.378906 185.460938 255.828125 185.890625 257.414062 186.03125 C 257.800781 186.074219 258.191406 186.097656 258.585938 186.09375 L 272.648438 186.09375 C 275.425781 186.089844 277.945312 185.214844 279.136719 183.84375 L 285.226562 176.71875 C 286.027344 175.769531 287.882812 175.226562 289.769531 175.390625 C 291.660156 175.554688 293.117188 176.382812 293.34375 177.421875 L 294.542969 182.671875 C 295.003906 184.621094 298.035156 186.085938 301.632812 186.09375 L 394.324219 186.09375 C 395.539062 186.097656 396.730469 185.925781 397.785156 185.59375 C 398.515625 185.375 399.171875 185.089844 399.726562 184.75 C 401.082031 183.890625 401.6875 182.75 401.386719 181.625 Z M 401.386719 181.625 "/>
<path style=" stroke:none;fill-rule:nonzero;fill:rgb(100%,71.764706%,71.764706%);fill-opacity:1;" d="M 501.195312 293.578125 L 521.089844 329.984375 C 508.730469 334.710938 495.789062 338.96875 482.359375 342.71875 C 477.902344 343.96875 473.414062 345.15625 468.839844 346.28125 L 448.230469 297.984375 L 440.230469 279.25 L 491.675781 276.125 Z M 501.195312 293.578125 "/>
<path style=" stroke:none;fill-rule:nonzero;fill:rgb(100%,71.764706%,71.764706%);fill-opacity:1;" d="M 264.445312 287.53125 L 262.730469 336.71875 L 261.988281 358.484375 C 242.273438 356.207031 222.992188 352.925781 204.394531 348.6875 L 211.226562 302.09375 L 212.941406 290.34375 Z M 264.445312 287.53125 "/>
<path style=" stroke:none;fill-rule:nonzero;fill:rgb(18.431373%,18.039216%,25.490196%);fill-opacity:1;" d="M 501.195312 293.578125 L 449.519531 297.8125 L 450.148438 302.453125 L 456.378906 349.203125 C 404.261719 360.738281 347.652344 364.867188 291.828125 361.203125 C 282.167969 360.578125 272.628906 359.71875 263.214844 358.625 C 267.445312 348.90625 271.105469 340.15625 266.589844 338.4375 C 265.230469 337.917969 263.9375 337.34375 262.730469 336.71875 C 241.664062 325.734375 249.441406 300.9375 249.441406 300.9375 L 211.226562 302.09375 L 197.992188 302.5 C 197.992188 302.5 203.707031 252.5 229.433594 252.5 L 260.875 252.5 L 412.359375 244.6875 C 412.359375 244.6875 455.234375 236.875 466.667969 247.8125 C 472.671875 253.546875 483.359375 265.703125 492.191406 275.984375 C 500.195312 285.328125 506.683594 293.125 506.683594 293.125 Z M 501.195312 293.578125 "/>
<path style=" stroke:none;fill-rule:nonzero;fill:rgb(94.509804%,94.509804%,94.509804%);fill-opacity:1;" d="M 1834.980469 183.246094 C 1833.894531 241.304688 1781.929688 295.550781 1695.257812 329.109375 C 1694.515625 329.390625 1693.746094 329.6875 1692.972656 329.984375 C 1692.171875 330.296875 1691.34375 330.609375 1690.515625 330.90625 C 1685.714844 332.71875 1680.816406 334.453125 1675.824219 336.109375 C 1668.792969 338.453125 1661.597656 340.65625 1654.242188 342.71875 C 1654.015625 342.78125 1653.757812 342.84375 1653.527344 342.90625 C 1649.300781 344.09375 1645.03125 345.21875 1640.726562 346.28125 C 1640.582031 346.3125 1640.46875 346.34375 1640.324219 346.375 C 1639.324219 346.625 1638.265625 346.890625 1637.238281 347.125 C 1629.261719 349.0625 1621.117188 350.828125 1612.828125 352.390625 C 1605.765625 353.75 1598.601562 354.96875 1591.332031 356.046875 C 1576.46875 358.289062 1561.328125 359.949219 1546.03125 361.015625 C 1532.984375 361.933594 1519.851562 362.421875 1506.703125 362.484375 C 1505.613281 362.5 1504.527344 362.5 1503.441406 362.5 C 1496.269531 362.5 1489.125 362.375 1482.0625 362.125 C 1475.886719 361.90625 1469.773438 361.609375 1463.714844 361.203125 C 1454.367188 360.59375 1445.132812 359.78125 1436.042969 358.71875 C 1435.644531 358.6875 1435.246094 358.640625 1434.84375 358.59375 C 1434.53125 358.5625 1434.1875 358.515625 1433.871094 358.484375 C 1424.726562 357.4375 1415.722656 356.15625 1406.890625 354.6875 C 1398.574219 353.3125 1390.40625 351.761719 1382.394531 350.03125 C 1380.339844 349.59375 1378.308594 349.15625 1376.277344 348.6875 C 1371.21875 347.53125 1366.21875 346.328125 1361.300781 345.03125 C 1359.871094 344.671875 1358.472656 344.296875 1357.070312 343.921875 C 1352.324219 342.65625 1347.640625 341.328125 1343.066406 339.921875 C 1337.550781 338.25 1332.128906 336.496094 1326.804688 334.65625 C 1320.085938 332.34375 1313.511719 329.90625 1307.136719 327.328125 C 1190.941406 280.660156 1143.234375 198.289062 1189.128906 123.566406 C 1235.019531 48.84375 1363.984375 -1.097656 1508.15625 0.0195312 C 1689.964844 1.398438 1836.941406 83.855469 1834.980469 183.246094 Z M 1834.980469 183.246094 "/>
<path style=" stroke:none;fill-rule:nonzero;fill:rgb(79.607843%,79.607843%,79.607843%);fill-opacity:1;" d="M 1433.871094 358.484375 C 1424.726562 357.4375 1415.722656 356.15625 1406.890625 354.6875 L 1437.21875 251.890625 L 1468.628906 251.359375 L 1525.59375 250.375 L 1554.804688 249.875 C 1554.804688 249.875 1575.527344 299.65625 1591.332031 356.046875 C 1576.46875 358.289062 1561.328125 359.949219 1546.03125 361.015625 C 1532.984375 361.933594 1519.851562 362.421875 1506.703125 362.484375 C 1505.613281 362.5 1504.527344 362.5 1503.441406 362.5 C 1496.269531 362.5 1489.125 362.375 1482.0625 362.125 C 1475.886719 361.90625 1469.773438 361.609375 1463.710938 361.203125 C 1454.367188 360.59375 1445.132812 359.78125 1436.042969 358.71875 C 1435.644531 358.6875 1435.246094 358.640625 1434.84375 358.59375 C 1434.53125 358.5625 1434.1875 358.515625 1433.871094 358.484375 Z M 1433.871094 358.484375 "/>
<path style=" stroke:none;fill-rule:nonzero;fill:rgb(18.431373%,18.039216%,25.490196%);fill-opacity:1;" d="M 1436.042969 358.71875 C 1435.644531 358.6875 1435.246094 358.640625 1434.84375 358.59375 C 1434.53125 358.5625 1434.1875 358.515625 1433.871094 358.484375 C 1424.726562 357.4375 1415.722656 356.15625 1406.890625 354.6875 C 1398.574219 353.3125 1390.40625 351.761719 1382.394531 350.03125 C 1380.339844 349.59375 1378.308594 349.15625 1376.277344 348.6875 C 1371.21875 347.53125 1366.21875 346.328125 1361.300781 345.03125 C 1359.871094 344.671875 1358.472656 344.296875 1357.070312 343.921875 L 1354.554688 266.953125 L 1431.730469 248.875 C 1431.730469 248.875 1431.984375 250 1468.628906 251.359375 C 1475.601562 263.796875 1436.042969 358.71875 1436.042969 358.71875 Z M 1436.042969 358.71875 "/>
<path style=" stroke:none;fill-rule:nonzero;fill:rgb(18.431373%,18.039216%,25.490196%);fill-opacity:1;" d="M 1666.707031 263.3125 L 1652.15625 305.109375 L 1653.527344 342.90625 C 1649.300781 344.09375 1645.03125 345.21875 1640.726562 346.28125 C 1640.582031 346.3125 1640.46875 346.34375 1640.324219 346.375 C 1639.324219 346.625 1638.265625 346.890625 1637.238281 347.125 C 1629.261719 349.0625 1621.117188 350.828125 1612.828125 352.390625 C 1605.765625 353.75 1598.601562 354.96875 1591.332031 356.046875 C 1576.46875 358.289062 1561.328125 359.949219 1546.03125 361.015625 C 1532.984375 361.933594 1519.851562 362.421875 1506.703125 362.484375 L 1505.1875 295.5 C 1501.984375 273.90625 1512.589844 259.625 1525.59375 250.375 C 1594.90625 245.3125 1593.363281 244.859375 1593.363281 244.859375 L 1666.847656 262.9375 Z M 1666.707031 263.3125 "/>
<path style=" stroke:none;fill-rule:nonzero;fill:rgb(18.431373%,18.039216%,25.490196%);fill-opacity:1;" d="M 1387.625 272.984375 L 1382.394531 350.03125 C 1380.335938 349.59375 1378.308594 349.15625 1376.277344 348.6875 C 1371.21875 347.53125 1366.21875 346.328125 1361.300781 345.03125 C 1359.871094 344.671875 1358.472656 344.296875 1357.070312 343.921875 C 1352.324219 342.65625 1347.640625 341.328125 1343.066406 339.921875 C 1337.550781 338.25 1332.128906 336.496094 1326.800781 334.65625 L 1354.554688 266.953125 Z M 1387.625 272.984375 "/>
<path style=" stroke:none;fill-rule:nonzero;fill:rgb(18.431373%,18.039216%,25.490196%);fill-opacity:1;" d="M 1695.257812 329.109375 C 1694.515625 329.390625 1693.746094 329.6875 1692.972656 329.984375 C 1692.171875 330.296875 1691.34375 330.609375 1690.515625 330.90625 C 1685.714844 332.71875 1680.816406 334.453125 1675.824219 336.109375 C 1668.792969 338.453125 1661.597656 340.65625 1654.242188 342.71875 C 1654.015625 342.78125 1653.757812 342.84375 1653.527344 342.90625 C 1649.171875 344.128906 1644.773438 345.285156 1640.332031 346.378906 L 1640.324219 346.375 L 1635.09375 269.0625 L 1666.707031 263.3125 L 1668.164062 263.046875 Z M 1695.257812 329.109375 "/>
<path style=" stroke:none;fill-rule:nonzero;fill:rgb(62.352941%,38.039216%,41.568627%);fill-opacity:1;" d="M 1527.082031 136.335938 C 1483.867188 129.410156 1438.535156 142.996094 1425.832031 166.683594 C 1413.128906 190.367188 1437.863281 215.183594 1481.082031 222.109375 C 1524.296875 229.035156 1569.628906 215.449219 1582.332031 191.765625 C 1595.035156 168.078125 1570.296875 143.265625 1527.082031 136.335938 Z M 1527.082031 136.335938 "/>
<path style=" stroke:none;fill-rule:nonzero;fill:rgb(18.431373%,18.039216%,25.490196%);fill-opacity:1;" d="M 1421.960938 190.429688 L 1421.960938 173.035156 C 1421.960938 173.035156 1396.300781 156.519531 1424.523438 152.355469 C 1424.523438 152.355469 1432.222656 110.746094 1498.933594 130.164062 C 1498.933594 130.164062 1591.300781 121.839844 1581.035156 150.96875 C 1581.035156 150.96875 1604.128906 143.363281 1596.429688 162.785156 L 1581.542969 194.066406 C 1581.542969 194.066406 1588.734375 173.402344 1565.640625 170.628906 L 1552.8125 166.464844 C 1552.8125 166.464844 1516.890625 185.886719 1463.011719 162.304688 C 1463.011719 162.304688 1439.917969 159.292969 1442.484375 171.777344 C 1445.050781 184.257812 1421.960938 190.429688 1421.960938 190.429688 Z M 1421.960938 190.429688 "/>
<path style=" stroke:none;fill-rule:nonzero;fill:rgb(94.509804%,94.509804%,94.509804%);fill-opacity:1;" d="M 1249.058594 728.125 C 1249.140625 787.429688 1196.082031 842.992188 1107.03125 876.859375 C 1106.230469 877.171875 1105.402344 877.484375 1104.574219 877.78125 C 1099.769531 879.59375 1094.875 881.328125 1089.882812 882.984375 C 1082.851562 885.328125 1075.65625 887.53125 1068.300781 889.59375 C 1063.84375 890.84375 1059.355469 892.03125 1054.78125 893.15625 C 1053.636719 893.4375 1052.46875 893.734375 1051.296875 894 C 1043.320312 895.9375 1035.175781 897.703125 1026.886719 899.265625 C 1005.234375 903.414062 982.847656 906.308594 960.085938 907.890625 C 945.964844 908.882812 931.738281 909.378906 917.5 909.375 C 910.328125 909.375 903.179688 909.25 896.121094 909 C 889.945312 908.78125 883.832031 908.484375 877.769531 908.078125 C 868.023438 907.4375 858.390625 906.578125 848.902344 905.46875 C 848.589844 905.4375 848.246094 905.390625 847.929688 905.359375 C 828.214844 903.082031 808.933594 899.800781 790.335938 895.5625 C 785.277344 894.40625 780.277344 893.203125 775.359375 891.90625 C 769.15625 890.3125 763.078125 888.609375 757.125 886.796875 C 615.589844 844.050781 551.101562 751.730469 604.488281 668.292969 C 657.875 584.855469 813.570312 534.636719 972.984375 549.433594 C 1132.402344 564.230469 1249.046875 639.730469 1249.058594 728.125 Z M 1249.058594 728.125 "/>
<path style=" stroke:none;fill-rule:nonzero;fill:rgb(100%,72.156863%,72.156863%);fill-opacity:1;" d="M 982.429688 732.320312 C 982.429688 754.675781 949.28125 772.792969 908.390625 772.792969 C 867.503906 772.792969 834.355469 754.675781 834.355469 732.320312 C 834.355469 709.96875 867.503906 691.847656 908.390625 691.847656 C 949.28125 691.847656 982.429688 709.96875 982.429688 732.320312 Z M 982.429688 732.320312 "/>
<path style=" stroke:none;fill-rule:nonzero;fill:rgb(79.607843%,79.607843%,79.607843%);fill-opacity:1;" d="M 877.769531 908.078125 C 868.023438 907.4375 858.390625 906.578125 848.902344 905.46875 L 857.90625 794.71875 L 859.191406 793.984375 L 877.625 783.34375 L 936.25 783.34375 L 957.886719 794.796875 L 959.714844 795.78125 L 1005.992188 820.015625 L 1026.886719 899.265625 C 1005.234375 903.414062 982.847656 906.308594 960.085938 907.890625 C 945.964844 908.882812 931.738281 909.378906 917.5 909.375 C 910.328125 909.375 903.179688 909.25 896.121094 909 C 889.945312 908.78125 883.832031 908.484375 877.769531 908.078125 Z M 877.769531 908.078125 "/>
<path style=" stroke:none;fill-rule:nonzero;fill:rgb(18.431373%,18.039216%,25.490196%);fill-opacity:1;" d="M 775.359375 891.90625 C 769.15625 890.3125 763.078125 888.609375 757.125 886.796875 C 756.523438 856.796875 756.121094 836.875 756.121094 836.875 L 763.097656 834.546875 C 763.179688 834.523438 763.265625 834.503906 763.355469 834.484375 L 842.5 808.203125 L 859.105469 793.453125 L 859.191406 793.984375 L 864.078125 825.078125 C 878.796875 852.546875 889.511719 880.605469 896.121094 909 C 889.945312 908.78125 883.832031 908.484375 877.769531 908.078125 C 868.023438 907.4375 858.390625 906.578125 848.902344 905.46875 C 848.589844 905.4375 848.246094 905.390625 847.929688 905.359375 C 828.214844 903.082031 808.933594 899.800781 790.335938 895.5625 C 785.277344 894.40625 780.277344 893.203125 775.359375 891.90625 Z M 775.359375 891.90625 "/>
<path style=" stroke:none;fill-rule:nonzero;fill:rgb(18.431373%,18.039216%,25.490196%);fill-opacity:1;" d="M 1026.886719 899.265625 C 1005.234375 903.414062 982.847656 906.308594 960.085938 907.890625 C 956.933594 897.804688 955.773438 887.5625 956.628906 877.34375 C 962.804688 823.390625 948.570312 793.453125 954.742188 793.453125 L 957.886719 794.796875 L 996.730469 811.578125 L 1047.863281 821.828125 L 1047.894531 821.828125 L 1083.078125 828.875 L 1089.28125 830.125 L 1089.28125 831.734375 C 1089.308594 837.296875 1089.367188 856.765625 1089.882812 882.984375 C 1082.851562 885.328125 1075.65625 887.53125 1068.300781 889.59375 C 1063.84375 890.84375 1059.355469 892.03125 1054.78125 893.15625 C 1053.636719 893.4375 1052.46875 893.734375 1051.296875 894 C 1043.320312 895.9375 1035.175781 897.703125 1026.886719 899.265625 Z M 1026.886719 899.265625 "/>
<path style=" stroke:none;fill-rule:nonzero;fill:rgb(18.431373%,18.039216%,25.490196%);fill-opacity:1;" d="M 838.347656 744.984375 C 838.347656 744.984375 844.640625 738.945312 843.175781 718.769531 C 841.714844 698.597656 897.910156 710.007812 944.867188 708.082031 C 991.828125 706.15625 981.886719 741.765625 981.886719 741.765625 C 981.886719 741.765625 985.273438 739.648438 992.527344 722.460938 C 999.78125 705.277344 983.3125 688.152344 983.3125 688.152344 C 978.460938 670.09375 952.324219 675.882812 952.324219 675.882812 C 964.910156 678.5625 962.492188 684.289062 962.492188 684.289062 C 951.839844 674.078125 925.699219 679.863281 925.699219 679.863281 C 890.835938 667.90625 855.503906 683.65625 855.503906 683.65625 C 813.386719 688.878906 838.085938 707.1875 838.085938 707.1875 C 795.734375 718.890625 838.347656 744.984375 838.347656 744.984375 Z M 838.347656 744.984375 "/>
<path style=" stroke:none;fill-rule:nonzero;fill:rgb(18.431373%,18.039216%,25.490196%);fill-opacity:1;" d="M 721.195312 874.203125 C 722.28125 860.46875 722.765625 851.609375 722.195312 850.375 C 719.25 843.9375 759.4375 835.3125 763.097656 834.546875 C 763.179688 834.523438 763.265625 834.503906 763.355469 834.484375 L 771.53125 836.875 L 775.359375 891.90625 C 769.15625 890.3125 763.078125 888.609375 757.125 886.796875 C 744.660156 883.027344 732.660156 878.820312 721.195312 874.203125 Z M 721.195312 874.203125 "/>
<path style=" stroke:none;fill-rule:nonzero;fill:rgb(18.431373%,18.039216%,25.490196%);fill-opacity:1;" d="M 1089.882812 882.984375 C 1082.851562 885.328125 1075.65625 887.53125 1068.300781 889.59375 C 1063.84375 890.84375 1059.355469 892.03125 1054.78125 893.15625 C 1053.636719 893.4375 1052.46875 893.734375 1051.296875 894 L 1038.433594 824.578125 L 1045.949219 821.578125 C 1045.949219 821.578125 1046.636719 821.671875 1047.863281 821.828125 L 1047.894531 821.828125 C 1053.925781 822.640625 1072.445312 825.328125 1083.078125 828.875 C 1085.453125 829.609375 1087.554688 830.578125 1089.28125 831.734375 C 1090.332031 832.421875 1090.855469 833.308594 1090.738281 834.203125 C 1090.398438 836.015625 1096.113281 853.203125 1104.574219 877.78125 C 1099.769531 879.59375 1094.875 881.328125 1089.882812 882.984375 Z M 1089.882812 882.984375 "/>
<path style=" stroke:none;fill-rule:nonzero;fill:rgb(94.509804%,94.509804%,94.509804%);fill-opacity:1;" d="M 451.648438 765.050781 L 328.699219 765.050781 L 328.699219 463.730469 L 334.414062 463.730469 L 334.414062 761.925781 L 451.648438 761.925781 Z M 451.648438 765.050781 "/>
<path style=" stroke:none;fill-rule:nonzero;fill:rgb(94.509804%,94.509804%,94.509804%);fill-opacity:1;" d="M 1506.324219 765.050781 L 1383.371094 765.050781 L 1383.371094 761.925781 L 1500.605469 761.925781 L 1500.605469 460.9375 L 1506.324219 460.9375 Z M 1506.324219 765.050781 "/>
<path style=" stroke:none;fill-rule:nonzero;fill:rgb(42.352941%,38.823529%,100%);fill-opacity:1;" d="M 1579.003906 356.128906 C 1579.003906 378.941406 1545.175781 397.433594 1503.441406 397.433594 C 1461.710938 397.433594 1427.878906 378.941406 1427.878906 356.128906 C 1427.878906 333.3125 1461.710938 314.820312 1503.441406 314.820312 C 1545.175781 314.820312 1579.003906 333.3125 1579.003906 356.128906 Z M 1579.003906 356.128906 "/>
<path style=" stroke:none;fill-rule:nonzero;fill:rgb(100%,100%,100%);fill-opacity:1;" d="M 1496.242188 373.5625 L 1473.625 357.667969 L 1486.777344 352.074219 L 1497.484375 359.601562 L 1533.664062 338.726562 L 1545.757812 344.992188 Z M 1496.242188 373.5625 "/>
<path style=" stroke:none;fill-rule:nonzero;fill:rgb(42.352941%,38.823529%,100%);fill-opacity:1;" d="M 407.121094 359.351562 C 407.121094 382.164062 373.289062 400.65625 331.558594 400.65625 C 289.824219 400.65625 255.996094 382.164062 255.996094 359.351562 C 255.996094 336.539062 289.824219 318.042969 331.558594 318.042969 C 373.289062 318.042969 407.121094 336.539062 407.121094 359.351562 Z M 407.121094 359.351562 "/>
<path style=" stroke:none;fill-rule:nonzero;fill:rgb(100%,100%,100%);fill-opacity:1;" d="M 324.359375 376.789062 L 301.742188 360.890625 L 314.894531 355.296875 L 325.601562 362.824219 L 361.777344 341.949219 L 373.875 348.214844 Z M 324.359375 376.789062 "/>
<path style=" stroke:none;fill-rule:nonzero;fill:rgb(42.352941%,38.823529%,100%);fill-opacity:1;" d="M 993.0625 909.351562 C 993.0625 932.164062 959.230469 950.65625 917.5 950.65625 C 875.769531 950.65625 841.9375 932.164062 841.9375 909.351562 C 841.9375 886.539062 875.769531 868.042969 917.5 868.042969 C 959.230469 868.042969 993.0625 886.539062 993.0625 909.351562 Z M 993.0625 909.351562 "/>
<path style=" stroke:none;fill-rule:nonzero;fill:rgb(100%,100%,100%);fill-opacity:1;" d="M 910.300781 926.789062 L 887.683594 910.890625 L 900.835938 905.296875 L 911.542969 912.824219 L 947.71875 891.949219 L 959.816406 898.214844 Z M 910.300781 926.789062 "/>
</g>
</svg>
